<mxfile host="Electron" agent="Mozilla/5.0 (X11; Linux x86_64) AppleWebKit/537.36 (KHTML, like Gecko) draw.io/26.1.1 Chrome/132.0.6834.210 Electron/34.3.3 Safari/537.36" version="26.1.1">
  <diagram name="Page-1" id="zFRKnceB4AZhU7glDDLc">
    <mxGraphModel dx="1434" dy="847" grid="1" gridSize="10" guides="1" tooltips="1" connect="1" arrows="1" fold="1" page="1" pageScale="1" pageWidth="850" pageHeight="1100" math="0" shadow="0">
      <root>
        <mxCell id="0" />
        <mxCell id="1" parent="0" />
        <mxCell id="ymfZCJoA_wFEZ-TIH0pu-1" value="Login" style="rounded=0;whiteSpace=wrap;html=1;" vertex="1" parent="1">
          <mxGeometry x="90" y="270" width="120" height="60" as="geometry" />
        </mxCell>
        <mxCell id="ymfZCJoA_wFEZ-TIH0pu-2" value="Voting" style="rounded=0;whiteSpace=wrap;html=1;" vertex="1" parent="1">
          <mxGeometry x="240" y="210" width="120" height="60" as="geometry" />
        </mxCell>
        <mxCell id="ymfZCJoA_wFEZ-TIH0pu-3" value="Description" style="rounded=0;whiteSpace=wrap;html=1;" vertex="1" parent="1">
          <mxGeometry x="240" y="320" width="120" height="60" as="geometry" />
        </mxCell>
        <mxCell id="ymfZCJoA_wFEZ-TIH0pu-5" value="" style="endArrow=classic;html=1;rounded=0;entryX=0;entryY=0.5;entryDx=0;entryDy=0;exitX=1;exitY=0.5;exitDx=0;exitDy=0;" edge="1" parent="1" source="ymfZCJoA_wFEZ-TIH0pu-1" target="ymfZCJoA_wFEZ-TIH0pu-2">
          <mxGeometry width="50" height="50" relative="1" as="geometry">
            <mxPoint x="490" y="400" as="sourcePoint" />
            <mxPoint x="540" y="350" as="targetPoint" />
            <Array as="points" />
          </mxGeometry>
        </mxCell>
        <mxCell id="ymfZCJoA_wFEZ-TIH0pu-7" value="" style="endArrow=classic;startArrow=classic;html=1;rounded=0;exitX=0.5;exitY=0;exitDx=0;exitDy=0;entryX=0.5;entryY=1;entryDx=0;entryDy=0;" edge="1" parent="1" source="ymfZCJoA_wFEZ-TIH0pu-3" target="ymfZCJoA_wFEZ-TIH0pu-2">
          <mxGeometry width="50" height="50" relative="1" as="geometry">
            <mxPoint x="490" y="400" as="sourcePoint" />
            <mxPoint x="540" y="350" as="targetPoint" />
          </mxGeometry>
        </mxCell>
        <mxCell id="ymfZCJoA_wFEZ-TIH0pu-9" value="Wallet" style="swimlane;whiteSpace=wrap;html=1;" vertex="1" parent="1">
          <mxGeometry x="410" y="80" width="110" height="100" as="geometry" />
        </mxCell>
        <mxCell id="ymfZCJoA_wFEZ-TIH0pu-12" value="Metamask" style="text;html=1;align=center;verticalAlign=middle;resizable=0;points=[];autosize=1;strokeColor=none;fillColor=none;" vertex="1" parent="ymfZCJoA_wFEZ-TIH0pu-9">
          <mxGeometry x="15" y="30" width="80" height="30" as="geometry" />
        </mxCell>
        <mxCell id="ymfZCJoA_wFEZ-TIH0pu-11" value="phantom&lt;div&gt;&lt;br&gt;&lt;/div&gt;" style="text;html=1;align=center;verticalAlign=middle;resizable=0;points=[];autosize=1;strokeColor=none;fillColor=none;" vertex="1" parent="ymfZCJoA_wFEZ-TIH0pu-9">
          <mxGeometry x="20" y="60" width="70" height="40" as="geometry" />
        </mxCell>
        <mxCell id="ymfZCJoA_wFEZ-TIH0pu-14" value="Smartcontract" style="shape=cylinder3;whiteSpace=wrap;html=1;boundedLbl=1;backgroundOutline=1;size=15;" vertex="1" parent="1">
          <mxGeometry x="670" y="90" width="90" height="80" as="geometry" />
        </mxCell>
        <mxCell id="ymfZCJoA_wFEZ-TIH0pu-15" value="" style="endArrow=classic;startArrow=classic;html=1;rounded=0;exitX=1;exitY=0.5;exitDx=0;exitDy=0;entryX=0;entryY=0.5;entryDx=0;entryDy=0;entryPerimeter=0;" edge="1" parent="1" source="ymfZCJoA_wFEZ-TIH0pu-9" target="ymfZCJoA_wFEZ-TIH0pu-14">
          <mxGeometry width="50" height="50" relative="1" as="geometry">
            <mxPoint x="490" y="440" as="sourcePoint" />
            <mxPoint x="540" y="390" as="targetPoint" />
          </mxGeometry>
        </mxCell>
        <mxCell id="ymfZCJoA_wFEZ-TIH0pu-16" value="" style="endArrow=classic;startArrow=classic;html=1;rounded=0;exitX=0.5;exitY=0;exitDx=0;exitDy=0;" edge="1" parent="1" source="ymfZCJoA_wFEZ-TIH0pu-2">
          <mxGeometry width="50" height="50" relative="1" as="geometry">
            <mxPoint x="490" y="440" as="sourcePoint" />
            <mxPoint x="410" y="140" as="targetPoint" />
          </mxGeometry>
        </mxCell>
        <mxCell id="ymfZCJoA_wFEZ-TIH0pu-18" value="" style="swimlane;startSize=0;" vertex="1" parent="1">
          <mxGeometry x="460" y="240" width="170" height="130" as="geometry" />
        </mxCell>
        <mxCell id="ymfZCJoA_wFEZ-TIH0pu-20" value="sqlite" style="shape=cylinder3;whiteSpace=wrap;html=1;boundedLbl=1;backgroundOutline=1;size=15;" vertex="1" parent="ymfZCJoA_wFEZ-TIH0pu-18">
          <mxGeometry x="70" y="60" width="90" height="60" as="geometry" />
        </mxCell>
        <mxCell id="ymfZCJoA_wFEZ-TIH0pu-22" value="API" style="rounded=1;whiteSpace=wrap;html=1;" vertex="1" parent="ymfZCJoA_wFEZ-TIH0pu-18">
          <mxGeometry x="10" y="10" width="130" height="30" as="geometry" />
        </mxCell>
        <mxCell id="ymfZCJoA_wFEZ-TIH0pu-28" value="" style="endArrow=classic;startArrow=classic;html=1;rounded=0;exitX=0.25;exitY=1;exitDx=0;exitDy=0;entryX=0;entryY=0.5;entryDx=0;entryDy=0;entryPerimeter=0;" edge="1" parent="ymfZCJoA_wFEZ-TIH0pu-18" source="ymfZCJoA_wFEZ-TIH0pu-22" target="ymfZCJoA_wFEZ-TIH0pu-20">
          <mxGeometry width="50" height="50" relative="1" as="geometry">
            <mxPoint x="30" y="200" as="sourcePoint" />
            <mxPoint x="80" y="150" as="targetPoint" />
          </mxGeometry>
        </mxCell>
        <mxCell id="ymfZCJoA_wFEZ-TIH0pu-23" value="Backend" style="text;html=1;align=center;verticalAlign=middle;resizable=0;points=[];autosize=1;strokeColor=none;fillColor=none;" vertex="1" parent="1">
          <mxGeometry x="510" y="210" width="70" height="30" as="geometry" />
        </mxCell>
        <mxCell id="ymfZCJoA_wFEZ-TIH0pu-26" value="" style="endArrow=classic;startArrow=classic;html=1;rounded=0;exitX=1;exitY=0.5;exitDx=0;exitDy=0;entryX=0;entryY=0.5;entryDx=0;entryDy=0;" edge="1" parent="1" source="ymfZCJoA_wFEZ-TIH0pu-2" target="ymfZCJoA_wFEZ-TIH0pu-22">
          <mxGeometry width="50" height="50" relative="1" as="geometry">
            <mxPoint x="490" y="440" as="sourcePoint" />
            <mxPoint x="540" y="390" as="targetPoint" />
          </mxGeometry>
        </mxCell>
        <mxCell id="ymfZCJoA_wFEZ-TIH0pu-27" value="" style="endArrow=classic;startArrow=classic;html=1;rounded=0;exitX=1;exitY=0.5;exitDx=0;exitDy=0;entryX=0;entryY=1;entryDx=0;entryDy=0;" edge="1" parent="1" source="ymfZCJoA_wFEZ-TIH0pu-3" target="ymfZCJoA_wFEZ-TIH0pu-22">
          <mxGeometry width="50" height="50" relative="1" as="geometry">
            <mxPoint x="490" y="440" as="sourcePoint" />
            <mxPoint x="540" y="390" as="targetPoint" />
          </mxGeometry>
        </mxCell>
        <mxCell id="ymfZCJoA_wFEZ-TIH0pu-29" value="" style="swimlane;startSize=0;" vertex="1" parent="1">
          <mxGeometry x="70" y="190" width="330" height="210" as="geometry" />
        </mxCell>
        <mxCell id="ymfZCJoA_wFEZ-TIH0pu-30" value="Frontend" style="text;html=1;align=center;verticalAlign=middle;resizable=0;points=[];autosize=1;strokeColor=none;fillColor=none;" vertex="1" parent="1">
          <mxGeometry x="195" y="158" width="70" height="30" as="geometry" />
        </mxCell>
      </root>
    </mxGraphModel>
  </diagram>
</mxfile>
